<?xml version="1.0" encoding="UTF-8" standalone="no"?><svg xmlns="http://www.w3.org/2000/svg" xmlns:xlink="http://www.w3.org/1999/xlink" fill="#000000" height="142.8" id="Layer" preserveAspectRatio="xMidYMid meet" version="1.1" viewBox="0.0 0.0 500.0 142.8" width="500" x="0" xml:space="preserve" y="0" zoomAndPan="magnify"><g><g id="change1_1"><path d="M500,71.40271L500,71.40271c0,39.4344559-31.9680176,71.4024506-71.4024658,71.4024506H71.4024582 C31.9680061,142.8051605,0,110.8371658,0,71.40271l0,0C0,31.9680061,31.9680061,0,71.4024582,0h357.1950684 C468.0319824,0,500,31.9680061,500,71.40271z" fill="#ffc334"/></g><g id="change2_1"><path d="M453.6226196,70.0855179c-0.0568542,0.0705872-0.1000366,0.1485291-0.1624756,0.2163162 l-30.3370056,32.9327927c-0.8185425,0.8906555-1.9377136,1.341568-3.0609131,1.341568 c-1.0074463,0-2.0169373-0.3635712-2.8171997-1.0998611c-1.6878662-1.5568619-1.7975464-4.1881943-0.2396545-5.8780975 l23.907959-25.954834h-54.7893066c-2.2972412,0-4.15979-1.8625488-4.15979-4.1597595 c0-2.2972183,1.8625488-4.1597633,4.15979-4.1597633h53.6218872L414.649231,40.2055206 c-1.6878662-1.5568657-1.7975464-4.1881981-0.2396545-5.8781013c1.5517883-1.6899033,4.1841431-1.7995834,5.8780823-0.241703 l32.9328003,30.3380203c0.0223389,0.0203094,0.0370789,0.0457001,0.0588989,0.0665207 c0.1056213,0.1015549,0.1960144,0.2155533,0.2904663,0.327774c0.0827637,0.0979996,0.1716309,0.1916885,0.2437439,0.2952728 c0.0761414,0.1096802,0.1350708,0.2297745,0.2010803,0.3465652c0.0660095,0.1183167,0.1391296,0.2328186,0.1929321,0.355957 c0.0518188,0.1175537,0.0843201,0.2429733,0.124939,0.36586c0.0441589,0.1335449,0.0944519,0.2645493,0.1249084,0.4013977 c0.0253906,0.1160278,0.0329895,0.2368851,0.0487366,0.3562088c0.0203247,0.153862,0.0436707,0.3064499,0.0467224,0.4615784 c0,0.0279236,0.0081177,0.0543289,0.0081177,0.0827713c0,0.095459-0.0218201,0.1848297-0.0279236,0.2787704 c-0.0101624,0.1520767-0.0192871,0.3028946-0.0462036,0.4534531c-0.0233459,0.1310043-0.0609436,0.2556686-0.0959778,0.3823547 c-0.0370789,0.1327896-0.072113,0.2645569-0.1223755,0.394043c-0.0512695,0.1315155-0.116272,0.2544022-0.1802673,0.3788071 c-0.0588989,0.1150131-0.1142578,0.2300262-0.1848145,0.3404694 C453.8191528,69.8438187,453.7211304,69.9636536,453.6226196,70.0855179z" fill="#f66000"/></g></g></svg>