<?xml version="1.0" encoding="UTF-8" standalone="no"?><svg xmlns="http://www.w3.org/2000/svg" xmlns:xlink="http://www.w3.org/1999/xlink" fill="#000000" height="165" preserveAspectRatio="xMidYMid meet" version="1.1" viewBox="86.3 130.1 198.4 165.0" width="198.4" zoomAndPan="magnify">
 <g id="surface1">
  <g id="change1_1"><path d="m265.75 295.09h-160.38c-10.507 0-19.022-8.52-19.022-19.02v-116.65c0-10.51 8.515-19.02 19.022-19.02h160.38c10.51 0 19.02 8.51 19.02 19.02v116.65c0 10.5-8.51 19.02-19.02 19.02" fill="#ffffff"/></g>
  <g id="change2_1"><path d="m284.77 170.03v-10.61c0-10.51-8.51-19.02-19.02-19.02h-160.38c-10.507 0-19.022 8.51-19.022 19.02v10.61h198.42" fill="#f66000"/></g>
  <g id="change3_1"><path d="m178.98 205.33h-26.76v-26.76h26.76v26.76" fill="#ffc334"/></g>
  <g id="change3_2"><path d="m218.9 205.33h-26.76v-26.76h26.76v26.76" fill="#ffc334"/></g>
  <g id="change3_3"><path d="m258.82 205.33h-26.77v-26.76h26.77v26.76" fill="#ffc334"/></g>
  <g id="change4_1"><path d="m139.07 240.63h-26.77v-26.76h26.77v26.76" fill="#40a456"/></g>
  <g id="change3_4"><path d="m178.98 240.63h-26.76v-26.76h26.76v26.76" fill="#ffc334"/></g>
  <g id="change3_5"><path d="m218.9 240.63h-26.76v-26.76h26.76v26.76" fill="#ffc334"/></g>
  <g id="change3_6"><path d="m258.82 240.63h-26.77v-26.76h26.77v26.76" fill="#ffc334"/></g>
  <g id="change4_2"><path d="m139.07 275.93h-26.77v-26.76h26.77v26.76" fill="#40a456"/></g>
  <g id="change3_7"><path d="m178.98 275.93h-26.76v-26.76h26.76v26.76" fill="#ffc334"/></g>
  <g id="change3_8"><path d="m218.9 275.93h-26.76v-26.76h26.76v26.76" fill="#ffc334"/></g>
  <g id="change5_1"><path d="m125.28 163.57c-4.75 0-8.6-3.85-8.6-8.6v-16.25c0-4.76 3.85-8.61 8.6-8.61s8.6 3.85 8.6 8.61v16.25c0 4.75-3.85 8.6-8.6 8.6" fill="#bf3900"/></g>
  <g id="change5_2"><path d="m187.75 163.57c-4.75 0-8.61-3.85-8.61-8.6v-16.25c0-4.76 3.86-8.61 8.61-8.61s8.6 3.85 8.6 8.61v16.25c0 4.75-3.85 8.6-8.6 8.6" fill="#bf3900"/></g>
  <g id="change5_3"><path d="m250.21 163.57c-4.75 0-8.6-3.85-8.6-8.6v-16.25c0-4.76 3.85-8.61 8.6-8.61s8.61 3.85 8.61 8.61v16.25c0 4.75-3.86 8.6-8.61 8.6" fill="#bf3900"/></g>
  <path d="m1991.7 1617.5l81.3-76.5 144.9 246.9" fill="none" stroke="#40a456" stroke-linecap="round" stroke-linejoin="round" stroke-miterlimit="10" stroke-width="54.101" transform="matrix(.1 0 0 -.1 0 425.2)"/>
 </g>
</svg>