<?xml version="1.0" encoding="UTF-8" standalone="no"?><svg xmlns="http://www.w3.org/2000/svg" xmlns:xlink="http://www.w3.org/1999/xlink" fill="#000000" height="330.7" id="Layer" preserveAspectRatio="xMidYMid meet" version="1.1" viewBox="-1.3 0.0 502.5 330.7" width="502.5" x="0" xml:space="preserve" y="0" zoomAndPan="magnify"><g><g id="change1_1"><path d="M465.7331238,51.7985764v251.8608093c0,8.1064453-6.5714417,14.6778564-14.6778564,14.6778564H48.9447403 c-8.1064377,0-14.6778526-6.5714111-14.6778526-14.6778564V37.1207237V14.6781921C34.2668877,6.5717578,40.8383026,0,48.9447403,0 h109.7704849c5.36763,0,10.307312,2.9298689,12.8808289,7.6404657l11.9329529,21.8397942 c2.5738525,4.710598,7.5131836,7.6404648,12.8808289,7.6404648h254.6454315 C459.1616821,37.1207237,465.7331238,43.6921425,465.7331238,51.7985764z" fill="#bf3900"/></g><g id="change2_1"><path d="M499.8852844,96.637825l-20.2833862,211.7138367 c-1.2129517,12.6622925-11.8504944,22.3288574-24.5704651,22.3288574H44.9685593 c-12.7199669,0-23.3575001-9.6665649-24.5704441-22.3288574L0.1147201,96.637825 c-1.3887436-14.4959488,10.0083208-27.0370636,24.570446-27.0370636h450.6296387 C489.8769531,69.6007614,501.2740173,82.1418762,499.8852844,96.637825z" fill="#ffc334"/></g><g id="change3_1"><path d="M480.8962708,294.8436584l-0.5328064,5.5603943H19.6365471l-0.5328274-5.5603943H480.8962708z" fill="#ffffff"/></g></g></svg>