<?xml version="1.0" encoding="UTF-8" standalone="no"?><svg xmlns="http://www.w3.org/2000/svg" xmlns:xlink="http://www.w3.org/1999/xlink" fill="#000000" height="269.6" id="Layer" preserveAspectRatio="xMidYMid meet" version="1.1" viewBox="0.0 0.0 500.0 269.6" width="500" x="0" xml:space="preserve" y="0" zoomAndPan="magnify"><g><g id="change1_1"><path d="M500,29.2510357v185.4063873c0,16.1547394-13.0960388,29.2510376-29.2510376,29.2510376H272.5433655 c-2.4529419,0-4.7435913,1.2252655-6.1053162,3.2654419l-13.5897217,20.3609161c-1.3559418,2.03125-4.3409576,2.03125-5.6966553,0 l-13.5897217-20.3609161c-1.3617249-2.0401764-3.6526031-3.2654419-6.1055603-3.2654419H29.2510357 C13.0960512,243.9084625,0,230.8121643,0,214.6574249V29.2510357C0,13.0960512,13.0960512,0,29.2510357,0h441.4979248 C486.9039612,0,500,13.0960512,500,29.2510357z" fill="#000000"/></g><g id="change2_1"><path d="M500,54.462059v12.8622513c-4.2909546-0.0714874-8.5664673-0.1060257-12.7917175-0.1371841 c-12.9236145-0.0951614-26.2877502-0.1937027-39.5069885-1.4100342 c-32.0679626-2.9509697-57.2118225-12.7115402-74.7350769-29.0102348C361.6965942,26.2846069,353.8991699,13.6945543,348.092865,0 h14.0500793c4.8904114,10.2404833,11.1428223,19.5006104,19.5820007,27.3502216 c15.3919983,14.3157597,37.9863281,22.9358425,67.1549988,25.6201687 c12.6782227,1.1665726,25.7660522,1.2631836,38.4239807,1.356411C491.4946289,54.3577194,495.7353516,54.392498,500,54.462059z M59.4266357,50.0421219c-14.5519753,13.6119537-30.349741,26.5254059-45.6272583,39.0142593 C9.2159281,92.8031845,4.6059108,96.5751038,0,100.3863907v16.7566299 c7.2919273-6.1487808,14.6485834-12.1695557,21.9393044-18.1294632 c15.4407883-12.6221771,31.4071426-25.6742706,46.273098-39.5789528C88.9438324,40.042923,105.5231781,20.1660156,117.8263016,0 h-15.2369461C91.4081268,16.8851185,76.9950333,33.6091423,59.4266357,50.0421219z M446.8424377,187.5736084 c-22.9894714-24.7434235-58.8687134-27.6074524-84.9139709-25.650116 c-40.8054199,3.0644836-82.4793701,17.054184-123.8630219,41.5797577 c-19.0516052,11.29039-37.9754486,24.6791687-57.0983124,40.4052124h20.6316833 c54.8562317-42.3999786,108.0664368-65.1626587,161.2919006-69.1599121 c23.2319336-1.7433472,55.0216675,0.582077,74.5302429,21.578949 c10.3054504,11.0923462,15.8219299,25.7428589,21.6620178,41.2532043c0.7861938,2.0887299,1.5887756,4.206192,2.4039307,6.3277588 h9.2620544c1.5022888,0,2.9780273-0.1142426,4.4194641-0.3325806c-1.394104-3.4963379-2.7394104-7.0462952-4.0496826-10.5267029 C465.0970154,217.0567474,458.8704529,200.5199127,446.8424377,187.5736084z" fill="#000000"/></g></g></svg>